<svg width="160" height="160" viewBox="0 0 160 160" fill="none" xmlns="http://www.w3.org/2000/svg">
<path d="M56.0279 120C53.5305 120 51.089 120.74 49.0124 122.128C46.9358 123.515 45.3173 125.487 44.3614 127.794C43.4055 130.101 43.1553 132.64 43.6424 135.09C44.1295 137.539 45.332 139.789 47.0978 141.555C48.8637 143.321 51.1136 144.524 53.5631 145.011C56.0125 145.499 58.5515 145.249 60.8588 144.293C63.1662 143.337 65.1383 141.719 66.5258 139.642C67.9133 137.566 68.6539 135.125 68.6539 132.627C68.6502 129.279 67.3187 126.07 64.9517 123.703C62.5847 121.336 59.3755 120.004 56.0279 120ZM56.0279 141.254C54.3216 141.254 52.6535 140.748 51.2347 139.801C49.8159 138.853 48.7099 137.506 48.0568 135.929C47.4037 134.353 47.2327 132.618 47.5655 130.945C47.8983 129.271 48.7199 127.734 49.9263 126.527C51.1328 125.321 52.6699 124.499 54.3435 124.166C56.017 123.833 57.7516 124.004 59.3281 124.657C60.9045 125.31 62.2519 126.415 63.1999 127.834C64.1479 129.253 64.6539 130.921 64.6539 132.627C64.6512 134.914 63.7417 137.107 62.1246 138.724C60.5075 140.341 58.3149 141.251 56.0279 141.254Z" fill="#210080"/>
<path opacity="0.8" d="M121.116 116.196C99.1679 152.052 67.1908 140.683 46.5718 123.021C6.79181 88.947 29.3718 58.268 61.4518 51.974C80.5578 48.226 80.9259 25.043 105.372 33.329C129.818 41.615 123.602 60.2609 120.702 73.9339C117.802 87.6069 130.913 100.192 121.116 116.196Z" fill="#FF004C"/>
<path d="M106.397 114.097C109.897 109.694 111.972 104.33 112.348 98.7181C112.724 93.1064 111.381 87.5133 108.5 82.6833C105.618 77.8534 101.334 74.0156 96.2169 71.6807C91.1002 69.3458 85.3937 68.6245 79.8569 69.6129V58.646H128.025C129.086 58.646 130.103 58.2245 130.853 57.4744C131.604 56.7242 132.025 55.7069 132.025 54.646V20C132.025 18.9391 131.604 17.9217 130.853 17.1715C130.103 16.4214 129.086 16 128.025 16H65.7749C64.714 16 63.6967 16.4214 62.9465 17.1715C62.1964 17.9217 61.7749 18.9391 61.7749 20V38.155H39.2119C37.218 38.1571 35.3065 38.9501 33.8965 40.3599C32.4865 41.7696 31.6933 43.6811 31.6909 45.6749V84.3209C31.6933 86.3148 32.4865 88.2263 33.8965 89.6361C35.3065 91.0459 37.218 91.8388 39.2119 91.8409H57.45C56.3793 97.5849 57.1529 103.52 59.66 108.798C62.1672 114.076 66.2795 118.425 71.4084 121.224C76.5374 124.022 82.4201 125.127 88.215 124.38C94.0098 123.633 99.4199 121.071 103.671 117.063L124.923 141.815C125.094 142.014 125.303 142.178 125.537 142.297C125.771 142.415 126.027 142.486 126.289 142.506C126.551 142.526 126.814 142.494 127.063 142.413C127.313 142.331 127.544 142.201 127.743 142.029C127.943 141.858 128.106 141.65 128.225 141.415C128.344 141.181 128.415 140.926 128.435 140.664C128.455 140.402 128.423 140.139 128.341 139.889C128.259 139.639 128.129 139.408 127.958 139.209L106.397 114.097ZM75.8569 54.646H65.7749V42.155H72.3379C73.2711 42.1561 74.1659 42.5272 74.8258 43.1871C75.4857 43.847 75.8568 44.7417 75.8579 45.6749L75.8569 54.646ZM79.8569 48.9879L96.8999 39.606L124.222 54.646H79.8569V48.9879ZM128.025 22.47V52.1699L101.048 37.3199L128.025 22.47ZM96.8999 35.038L69.579 19.9979H124.22L96.8999 35.038ZM65.772 22.47L92.7529 37.322L79.7529 44.478C79.4678 42.7156 78.5654 41.1118 77.2069 39.9534C75.8484 38.7949 74.1223 38.1571 72.3369 38.1539H65.7739L65.772 22.47ZM39.2119 87.84C38.2785 87.8392 37.3835 87.4682 36.7234 86.8082C36.0633 86.1483 35.692 85.2534 35.6909 84.3199V45.674C35.692 44.7405 36.0633 43.8457 36.7234 43.1858C37.3835 42.5259 38.2785 42.1547 39.2119 42.1539H61.7749V54.645C61.7749 55.7059 62.1964 56.7232 62.9465 57.4734C63.6967 58.2235 64.714 58.645 65.7749 58.645H75.8569V70.6339C71.8467 71.9933 68.1996 74.2497 65.193 77.2313C62.1864 80.2129 59.8997 83.8412 58.507 87.84H39.2119ZM84.693 120.607C79.2682 120.617 74.0035 118.769 69.7743 115.372C65.545 111.974 62.6059 107.232 61.4457 101.933C60.2854 96.6333 60.974 91.0965 63.3967 86.2428C65.8195 81.3891 69.8306 77.5109 74.7631 75.2528C79.6956 72.9947 85.2523 72.4929 90.5095 73.8308C95.7668 75.1687 100.408 78.2656 103.661 82.6068C106.914 86.948 108.583 92.2718 108.391 97.6932C108.199 103.115 106.157 108.307 102.605 112.407C102.541 112.446 102.48 112.489 102.421 112.535C102.229 112.701 102.07 112.903 101.953 113.129C99.7407 115.49 97.0675 117.372 94.0986 118.659C91.1298 119.945 87.9286 120.608 84.693 120.608V120.607Z" fill="#210080"/>
<path d="M149.587 59.6699C149.391 59.4945 149.163 59.3594 148.915 59.2723C148.667 59.1852 148.405 59.1477 148.143 59.1621C147.88 59.1765 147.623 59.2424 147.386 59.3562C147.15 59.4699 146.937 59.6292 146.762 59.8249L127.121 81.7249L119.336 72.2949C118.996 71.8922 118.512 71.6399 117.987 71.5926C117.462 71.5453 116.94 71.707 116.534 72.0424C116.128 72.3779 115.87 72.86 115.817 73.3842C115.765 73.9084 115.921 74.4322 116.252 74.8419L125.516 86.0639C125.699 86.2857 125.928 86.4654 126.187 86.5906C126.446 86.7159 126.729 86.7838 127.016 86.7899H127.057C127.338 86.7898 127.616 86.7306 127.872 86.616C128.129 86.5015 128.359 86.3342 128.546 86.1249L149.74 62.4949C149.916 62.2994 150.051 62.0712 150.138 61.8234C150.226 61.5756 150.263 61.3131 150.249 61.0507C150.235 60.7884 150.169 60.5314 150.055 60.2945C149.942 60.0576 149.783 59.8453 149.587 59.6699Z" fill="#210080"/>
<path opacity="0.8" d="M40.5328 52.323C24.7818 60.329 11.1098 59.481 9.52377 45.593C7.93777 31.705 9.37478 21.015 21.9608 16.401C34.5958 11.769 46.7668 13.819 52.9698 23.132C60.2368 34.043 54.2938 45.329 40.5328 52.323Z" fill="#FF9000"/>
<path opacity="0.8" d="M25.0613 123.88C16.4064 122.832 9.74976 118.005 11.1989 110.015C12.8924 100.653 17.5216 94.9953 25.0613 96.1483C32.63 97.3062 38.2259 102.389 38.925 110.015C39.744 118.95 33.7695 124.934 25.0613 123.88Z" fill="#7427F3"/>
</svg>
